<?xml version="1.0" encoding="iso-8859-1"?>
<!-- Generator: Adobe Illustrator 19.0.0, SVG Export Plug-In . SVG Version: 6.00 Build 0)  -->
<svg version="1.1" id="Layer_1" xmlns="http://www.w3.org/2000/svg" xmlns:xlink="http://www.w3.org/1999/xlink" x="0px" y="0px"
	 viewBox="0 0 511.999 511.999" style="enable-background:new 0 0 511.999 511.999;" xml:space="preserve">
<polygon style="fill:#CFDCE5;" points="169.777,58.271 150.531,0.75 112.039,0.75 92.793,58.271 113.257,85.44 113.257,274.778 
	149.313,274.778 149.313,85.44 "/>
<path style="fill:#BAC6CC;" d="M124.735,274.778h-11.479V85.44l0,0c6.34,0,11.479,5.139,11.479,11.479V274.778z"/>
<rect x="100.153" y="259.225" style="fill:#FCD577;" width="62.26" height="43.65"/>
<rect x="100.153" y="259.225" style="fill:#EAC36E;" width="24.576" height="43.65"/>
<path style="fill:#FF6F52;" d="M152.686,332.132c0-5.687,2.497-10.791,6.454-14.274c7.737-6.812,12.556-16.331,12.556-26.639v-0.892
	h-80.82v0.892c0,10.309,4.817,19.828,12.556,26.639c3.957,3.483,6.454,8.587,6.454,14.274c0,5.249-2.128,10.001-5.568,13.441
	C96,353.89,90.875,364.859,90.875,376.619v87.515c0,22.318,18.092,40.409,40.409,40.409l0,0c22.318,0,40.409-18.092,40.409-40.409
	v-87.515c0-11.762-5.126-22.73-13.441-31.046C154.813,342.134,152.686,337.381,152.686,332.132z"/>
<path style="fill:#E25749;" d="M115.034,464.136v-87.515c0-11.762,2.062-22.73,5.406-31.046c1.383-3.44,2.239-8.192,2.239-13.443
	c0-5.687-1.005-10.791-2.596-14.274c-3.112-6.812-5.049-16.331-5.049-26.639v-0.893H90.875v0.893
	c0,10.308,4.817,19.828,12.556,26.639c3.957,3.483,6.454,8.587,6.454,14.274c0,5.249-2.128,10.003-5.568,13.443
	C96,353.891,90.875,364.86,90.875,376.621v87.515c0,22.317,18.092,40.409,40.409,40.409l0,0
	C122.31,504.545,115.034,486.453,115.034,464.136z"/>
<path style="fill:#CFDCE5;" d="M356.142,329.884V150.517c0-15.943,4.193-31.519,11.564-45.658
	c5.162-9.901,8.082-21.154,8.082-33.094c0-40.415-33.403-73.013-74.106-71.729l21.13,40.291c8.14,15.522,2.156,34.704-13.366,42.844
	l0,0c-15.522,8.141-34.704,2.156-42.844-13.366l-20.889-39.831c-7.628,10.597-12.454,23.317-13.337,37.047
	c-1.853,28.835,13.332,54.303,36.462,67.324c17.354,9.77,28.367,56.957,28.367,76.872v150.263c0,15.943-4.193,31.519-11.564,45.658
	c-5.162,9.901-8.082,21.154-8.082,33.094c0,40.415,33.403,73.013,74.106,71.73l-21.13-40.291
	c-8.14-15.522-2.156-34.704,13.366-42.844l0,0c15.522-8.141,34.704-2.156,42.844,13.366l20.889,39.831
	c7.628-10.597,12.454-23.317,13.337-37.047c1.853-28.835-13.332-54.303-36.462-67.324
	C367.155,367.882,356.142,349.798,356.142,329.884z"/>
<g>
</g>
<g>
</g>
<g>
</g>
<g>
</g>
<g>
</g>
<g>
</g>
<g>
</g>
<g>
</g>
<g>
</g>
<g>
</g>
<g>
</g>
<g>
</g>
<g>
</g>
<g>
</g>
<g>
</g>
</svg>
